#!OML:ASF F:\VICON\USERDATA\INSTALL\rory3\rory3.ASF
:FULLY-SPECIFIED
:DEGREES
67
root 0.6782019740794046 17.824914810878763 36.66079848791135 -4.3079017315853605 -3.915388132688002 -3.35046313810976
lfemur -14.233933364915233 -6.565969710447171 -17.72230551606411
ltibia 15.074798257997205
lfoot -1.1630905498669621 -5.808624661325682
ltoes -10.80951637484982
rfemur -14.89072428865318 -5.757999191851247 22.742757708189952
rtibia 75.5774932908636
rfoot 17.135266956522255 -6.294057544035045
rtoes 12.015703843072405
lowerback -1.0 1.2587045979189355 0.8924532594548334
upperback -0.13456631729372165 2.022538847296024 0.3905912186952647
thorax -6.196536446456171 1.459170991114319 -0.4538510314319961
lowerneck -16.538498461276642 -3.370360827354546 -2.1312588013727694
upperneck 20.101606105483032 -4.098864830819009 2.950319553023483
head 8.970634852740933 -1.8155479340976721 0.7576116615993698
lclavicle 1.271879190495329e-14 3.5395681680070403e-15
lhumerus -38.076992352554846 12.22769881999928 77.79299332037331
lradius 19.779786461233435
lwrist 3.341535424625561
lhand -30.490205074404194 19.130318102797535
lfingers nan
lthumb -3.5163559972503844 50.167466381618844
rclavicle 1.3371233516417803e-14 3.871788382126854e-15
rhumerus -30.809232341525806 -20.1479443997276 -78.04771907050936
rradius 30.202132049086494
rwrist 3.9619318170403606
rhand -18.257842471254445 -1.0
rfingers nan
rthumb 8.300379584155381 -6.487008877453078
68
root 0.6893451449299085 17.843403281408353 37.28211178599506 -4.578329906212514 -3.4605765527374963 -2.8211416802363387
lfemur -11.698016802881737 -7.014873404938829 -18.16772095753592
ltibia 15.166295024523848
lfoot -2.9012471130496342 -5.164123013039273
ltoes -11.910222490519327
rfemur -18.831668109619322 -7.262114061697855 22.651426194001406
rtibia 80.37166881631998
rfoot 10.566421618967091 -7.549056143115445
rtoes 10.022396269275896
lowerback -1.0 0.8523642541132044 0.2914437805391592
upperback 0.10753688292577984 1.360333633096086 0.6016196494991399
thorax -6.04047086642385 1.162638651126247 0.2159483703976266
lowerneck -16.497307233716345 -3.1474391618223523 -2.0671995328282384
upperneck 19.97590676347571 -3.65628413758114 2.7106386534557627
head 8.920952545852826 -1.7007460599523532 0.6971780951798188
lclavicle 2.3451361908802828e-15 -9.415151469239879e-15
lhumerus -37.017694354081954 11.268782222448234 78.24252021994383
lradius 20.433908313840625
lwrist 2.9117563500965344
lhand -31.96356726736726 17.755837304893063
lfingers nan
lthumb -4.883564329588097 48.860165979413495
rclavicle 3.1830083680126546e-15 -9.043726854446599e-15
rhumerus -31.08934690286427 -21.298380933081837 -77.61887533876168
rradius 28.491307027302362
rwrist 5.96467660501939
rhand -18.54271002498299 -1.0
rfingers nan
rthumb 8.037426390029472 -5.7379705324514685
69
root 0.6963313109347017 17.848580057090903 38.671529355936315 -4.891916579976977 -3.31218394743629 -2.405315194697175
lfemur -9.422182071540075 -6.535335806226338 -18.404126836719584
ltibia 15.230310592294167
lfoot -4.3946807824546426 -4.397514580363082
ltoes -13.202110809042395
rfemur -22.478510288155157 -6.978000163102631 23.119464441336692
rtibia 81.7602310138686
rfoot 6.705322632267035 -7.738748505608167
rtoes 6.916282740090649
lowerback -1.0 0.6414573357851986 -0.6109024174344855
upperback 0.30641452373269873 0.8589165098692086 0.8931419105372481
thorax -5.952557003024893 0.9865195778615796 1.1010046254145514
lowerneck -16.153748726041 -2.9456438964934444 -2.1807319291285117
upperneck 20.032265978240456 -3.2344774651912935 2.57273066315815
head 8.914839691690185 -1.6032518858792248 0.6915731610474847
lclavicle -3.3895219544777125e-15 -2.411159406332021e-14
lhumerus -35.61434437982615 9.19783114950061 79.2759601653241
lradius 21.352808871419757
lwrist 4.365410131023987
lhand -30.589847141681798 19.22286121210382
lfingers nan
lthumb -3.5447069446819137 50.371361412517054
rclavicle -2.7155829636546448e-15 -2.422799433421749e-14
rhumerus -32.27871003009961 -22.35363295280108 -77.0828254974159
rradius 28.045082632378485
rwrist 6.241944319159648
rhand -18.704072465814736 -1.0
rfingers nan
rthumb 7.888473031587245 -5.810389812904033
70
root 0.7027833640016767 17.83886001668703 38.9342852268053 -4.779428357400336 -2.2136977149978696 -1.786821534787157
lfemur -7.405136064956872 -6.652347994826189 -18.96139433403793
ltibia 15.604615672004066
lfoot -6.907109626360827 -3.825813838145197
ltoes -14.30918638393891
rfemur -25.747280543146836 -7.358723803401237 23.129437393656357
rtibia 79.91634595943157
rfoot 1.2992087477008232 -6.838939340313144
rtoes 3.8694291161935253
lowerback -1.0 0.12024196435946989 -1.369578904080561
upperback 0.2328770264792696 -0.032598230241460024 0.9091747484659735
thorax -6.124344018809576 0.594509617937902 1.7203640961362705
lowerneck -16.19847422510402 -2.9600735187632177 -2.608876946661706
upperneck 20.34481459931469 -3.3475687420994253 2.9507256842058998
head 9.062693076913396 -1.639304631076623 0.8307834245475478
lclavicle -4.493153576189224e-15 -8.68334550584168e-15
lhumerus -34.31322475224227 7.137986199656838 79.90612408699633
lradius 22.299869114732658
lwrist 5.727485770112523
lhand -26.719345953125572 20.042121040861666
lfingers nan
lthumb 0.2181483754396445 51.37596743495486
rclavicle -3.6559091597327466e-15 -8.783573594583628e-15
rhumerus -33.343637084292816 -23.401269489331945 -76.48170623525097
rradius 27.159824358287015
rwrist 5.754488037545585
rhand -18.372984976040204 -1.0
rfingers nan
rthumb 8.202659197291414 -5.642713051803087
71
root 0.6939023881223942 17.818374290041657 39.838073356016906 -4.882173629308449 -1.0680838780580126 -1.124145999616811
lfemur -5.259446996645441 -6.705001526359754 -19.456170980866627
ltibia 15.202235046175204
lfoot -8.938269338674901 -3.6501607563666267
ltoes -16.174515170675505
rfemur -27.833479315278417 -7.519342108233144 22.982094830576298
rtibia 75.13708767851114
rfoot -2.552125584132879 -7.4288246594817755
rtoes -1.1940205649354154
lowerback -1.0 -0.30192606065791183 -2.2885469403501526
upperback 0.6158536189283037 -0.7360184169056279 0.9613028624263321
thorax -5.845002776635013 0.2347999991649095 2.4288990331679576
lowerneck -16.615859501980047 -2.9206615422901434 -2.210660109731653
upperneck 20.119555799960715 -3.3325526971070003 2.5627340283233404
head 9.016255399301174 -1.6473649290293981 0.6695471342708912
lclavicle -2.1679858701080143e-15 -4.495482059845222e-16
lhumerus -31.566524674699565 5.543279898966643 80.1723035321274
lradius 22.892301244585443
lwrist 7.117858598824538
lhand -26.061286276800807 22.967905678470622
lfingers nan
lthumb 0.8140930627618368 54.21946985317509
rclavicle -1.1336405089206487e-15 -2.474874311317711e-16
rhumerus -33.90250104562583 -24.076506887301864 -76.18266832693784
rradius 26.99275169052872
rwrist 5.691606149978316
rhand -18.49240661287292 -1.0
rfingers nan
rthumb 8.093751389404376 -5.667706773918625
72
root 0.6756733147579712 17.82564622042376 40.08430085570356 -4.517616852374547 -0.33844690726924326 -0.900270811672023
lfemur -3.236765238902745 -6.548933660909007 -19.44100074326974
ltibia 13.765808612067772
lfoot -10.096992752198105 -3.3133206694618806
ltoes -17.899324465960568
rfemur -29.326200467394614 -6.7764538609223015 23.25837340100457
rtibia 66.88128911471789
rfoot -1.9744795732830864 -9.68294557095551
rtoes -3.466588222146438
lowerback -1.0 -0.6357276734696639 -2.822589295292148
upperback 0.5939886177939544 -1.2389522589112107 1.1000474026653932
thorax -5.845778955062437 -0.01074935019035858 2.978752365854598
lowerneck -16.272523757233678 -3.1012207249353865 -2.604907030875412
upperneck 19.96558868621723 -3.6840326770361895 2.9844713648352497
head 8.91988055454785 -1.7587431141705816 0.833055592699355
lclavicle 1.5811195168852589e-15 -4.693842181148836e-16
lhumerus -29.677385946687142 3.2636832612229933 80.56869142967369
lradius 23.541310102343378
lwrist 8.607357495657707
lhand -28.22723304073411 19.300531378594115
lfingers nan
lthumb -1.2780201255483312 50.539879508293446
rclavicle 2.4145518949082336e-15 -3.8929523571156e-16
rhumerus -35.09230959559838 -24.170286607345115 -75.83264544168394
rradius 27.304569570804343
rwrist 5.857009955177115
rhand -18.59839333967833 -1.0
rfingers nan
rthumb 8.002537134085573 -6.4258626180348015
73
root 0.6489721615570244 17.81975853789334 40.27409087615689 -4.225349575644252 0.2915986662250476 -0.4520398359136246
lfemur -0.5820709312487296 -6.273386928730725 -19.83329914230585
ltibia 10.856249235403226
lfoot -10.842417841977527 -3.304932259619148
ltoes -16.85076883517952
rfemur -29.5891458139186 -5.676127209955355 22.8262355234697
rtibia 55.85537320551863
rfoot -2.0250576698641076 -11.375992149845887
rtoes -7.599100670138566
lowerback -1.0 -0.9283209085118111 -3.6156974683050533
upperback 0.6201172167795901 -1.6720163546700457 1.188107595875614
thorax -5.850292908316051 -0.24926931036500752 3.6228061487540515
lowerneck -15.948476896455617 -3.0509889214336536 -2.6055300457671553
upperneck 19.643591838851613 -3.6294235458346633 2.969805305219244
head 8.774963238751383 -1.7490774192514735 0.837184885292777
lclavicle 8.315211003740624e-15 -2.222728493706987e-15
lhumerus -27.73061384446448 2.9932149510122956 80.09893018035523
lradius 25.294985755893396
lwrist 6.883800955425911
lhand -26.000652478938097 23.204800163090788
lfingers nan
lthumb 0.8125879518423837 54.302233158591086
rclavicle 9.346980816617164e-15 -2.1491699362951355e-15
rhumerus -35.89389322082285 -24.130288283734945 -75.5186846870734
rradius 26.93615962868053
rwrist 5.701945904047135
rhand -19.413187687500475 -1.0
rfingers nan
rthumb 7.220557822873108 -6.402333299205153
74
root 0.6302076240828289 17.803257305494846 40.816235346886394 -3.4779280384193094 0.625476990944374 0.1414350738469996
lfemur 2.0391991768117697 -5.577057751597823 -20.464644426919474
ltibia 7.402622134930404
lfoot -11.022136810352993 -2.8639413483047664
ltoes -16.869041123266562
rfemur -29.17129232761316 -3.6922311526237532 21.622547863501076
rtibia 42.60541380946958
rfoot 1.151803144545311 -12.689239596272406
rtoes -9.393993249916246
lowerback -1.0 -1.11012477830855 -4.4040158303143935
upperback 0.5916806298371229 -1.8652262451528598 0.9881173273910715
thorax -5.46449269508337 -0.4115297712764763 3.9633111627478286
lowerneck -16.098040506654122 -3.0609539722819568 -2.5766942190785938
upperneck 19.65777222612194 -3.7124970847027035 2.9576909565949903
head 8.828219946725781 -1.7654321501984351 0.8188953034729298
lclavicle -2.7027579789106348e-14 6.4892819628360015e-15
lhumerus -25.679062902821673 2.1245263409088104 79.77334695341273
lradius 26.365579274679295
lwrist 7.559496667018999
lhand -28.148586092985354 20.6209422879223
lfingers nan
lthumb -1.2937079409716719 51.545946352707986
rclavicle -2.6410670946180495e-14 6.925288973892712e-15
rhumerus -36.68255744236329 -24.97033999837397 -75.0472896922246
rradius 26.472097781730625
rwrist 6.303961969964457
rhand -19.006294283963722 -1.0
rfingers nan
rthumb 7.62664256053071 -7.671236601175647
